<svg xmlns="http://www.w3.org/2000/svg" width="520" height="160" viewBox="0 0 520 160">
  <defs>
    <linearGradient id="g" x1="0" y1="0" x2="1" y2="1">
      <stop offset="0" stop-color="#111827"/>
      <stop offset="1" stop-color="#2563eb"/>
    </linearGradient>
  </defs>
  <rect width="520" height="160" rx="28" fill="url(#g)"/>
  <g fill="#ffffff">
    <path d="M76 112 46 48h18l18 43 18-43h18l-30 64H76z"/>
    <path d="M141 112V48h54v14h-38v11h35v14h-35v11h38v14h-54z"/>
    <path d="M246 112l-17-25-17 25h-20l27-33-25-31h20l15 21 15-21h20l-25 31 27 33h-20z"/>
    <path d="M278 112V48h16v50h36v14h-52z" opacity="0"/>
    <path d="M317 112V48h16v64h-16z" opacity="0"/>
    <path d="M346 112V48h16l29 38V48h16v64h-16l-29-38v38h-16z" opacity="0"/>
  </g>
  <text x="230" y="105" font-family="Inter, ui-sans-serif, system-ui, -apple-system, Segoe UI, Roboto, Helvetica, Arial" font-size="64" font-weight="800" fill="#fff" letter-spacing="2">
    WEXON
  </text>
</svg>

